<?xml version="1.0" encoding="UTF-8"?>
<svg width="1080px" height="226px" viewBox="0 0 1080 226" version="1.1" xmlns="http://www.w3.org/2000/svg" xmlns:xlink="http://www.w3.org/1999/xlink">
    <!-- Generator: Sketch Beta 41 (35307) - http://www.bohemiancoding.com/sketch -->
    <title>IONIQ_Logo_CMYK</title>
    <desc>Created with Sketch Beta.</desc>
    <defs></defs>
    <g id="Page-1" stroke="none" stroke-width="1" fill="none" fill-rule="evenodd">
        <g id="IONIQ_Logo_CMYK" fill="#40BBCF">
            <polygon id="Fill-1" points="0 213.192 35.9 213.192 35.9 6.273 0 6.273"></polygon>
            <polygon id="Fill-2" points="733.352 213.192 769.254 213.192 769.254 6.273 733.352 6.273"></polygon>
            <path d="M231.358,184.747 C190.043,184.747 156.432,151.136 156.432,109.821 C156.432,68.506 190.043,34.894 231.358,34.894 C272.672,34.894 306.283,68.506 306.283,109.821 C306.283,151.136 272.672,184.747 231.358,184.747 Z M231.358,0.42 C171.035,0.42 121.958,49.497 121.958,109.821 C121.958,170.144 171.035,219.22 231.358,219.22 C291.68,219.22 340.757,170.144 340.757,109.821 C340.757,49.497 291.68,0.42 231.358,0.42 L231.358,0.42 Z" id="Fill-3"></path>
            <polyline id="Fill-4" points="587.464 6.273 587.464 140.003 436.637 6.197 430.608 6.197 430.604 6.201 428.149 6.202 428.149 213.192 464.051 213.192 464.41 80.168 614.765 213.542 623.366 213.378 623.366 6.273 587.464 6.273"></polyline>
            <path d="M1003.27,174.786 C992.138,181.357 979.177,185.144 965.342,185.144 C924.067,185.144 890.488,151.565 890.488,110.29 C890.488,69.014 924.067,35.435 965.342,35.435 C1006.62,35.435 1040.2,69.014 1040.2,110.29 C1040.2,124.753 1036.06,138.262 1028.93,149.721 L1053.69,174.485 C1053.78,174.37 1053.87,174.257 1053.96,174.142 C1066.95,156.165 1074.64,134.115 1074.64,110.29 C1074.64,50.023 1025.61,0.994 965.342,0.994 C905.077,0.994 856.047,50.023 856.047,110.29 C856.047,170.555 905.077,219.585 965.342,219.585 C988.548,219.585 1010.07,212.285 1027.78,199.903 C1027.9,199.82 1028.01,199.73 1028.13,199.647 L1003.27,174.786" id="Fill-5"></path>
            <path d="M1054.16,173.875 C1054.1,173.965 1027.51,200.101 1027.51,200.101 L1053.34,226 L1080.03,199.739 L1054.16,173.875" id="Fill-6"></path>
            <path d="M1053.71,174.5 C1053.79,174.382 1053.87,174.26 1053.96,174.142 C1053.87,174.257 1053.78,174.37 1053.69,174.485 L1053.71,174.5" id="Fill-7"></path>
            <path d="M1028.13,199.647 C1028.01,199.73 1027.9,199.82 1027.78,199.903 C1027.9,199.82 1028.02,199.742 1028.14,199.659 L1028.13,199.647" id="Fill-8"></path>
        </g>
    </g>
</svg>