<?xml version="1.0" encoding="UTF-8"?>
<svg width="800px" height="707px" viewBox="0 0 800 707" version="1.1" xmlns="http://www.w3.org/2000/svg" xmlns:xlink="http://www.w3.org/1999/xlink">
    <!-- Generator: Sketch Beta 41 (35307) - http://www.bohemiancoding.com/sketch -->
    <title>road</title>
    <desc>Created with Sketch Beta.</desc>
    <defs>
        <polygon id="path-1" points="274.644 0.08 0.06 0.08 0.06 752.824 549.228 752.824 549.228 0.08"></polygon>
        <polygon id="path-3" points="274.644 0.08 0.06 0.08 0.06 752.824 549.228 752.824 549.228 0.08"></polygon>
        <polygon id="path-5" points="274.644 0.08 0.06 0.08 0.06 752.824 549.228 752.824 549.228 0.08"></polygon>
        <polygon id="path-7" points="274.644 0.08 0.06 0.08 0.06 752.824 549.228 752.824 549.228 0.08"></polygon>
        <polygon id="path-9" points="274.644 0.08 0.06 0.08 0.06 752.824 549.228 752.824 549.228 0.08"></polygon>
        <polygon id="path-11" points="274.644 0.08 0.06 0.08 0.06 752.824 549.228 752.824 549.228 0.08"></polygon>
        <polygon id="path-13" points="274.644 0.08 0.06 0.08 0.06 752.824 549.228 752.824 549.228 0.08"></polygon>
        <polygon id="path-15" points="0.06 0.643 0.06 354.763 434.849 354.763 434.849 0.643"></polygon>
        <polygon id="path-17" points="0.06 0.643 0.06 354.763 434.849 354.763 434.849 0.643"></polygon>
        <polygon id="path-19" points="0.06 0.45 0.06 431.726 325.874 431.726 325.874 0.45"></polygon>
        <polygon id="path-21" points="0.06 0.45 0.06 431.726 325.874 431.726 325.874 0.45"></polygon>
        <polygon id="path-23" points="0.06 473.765 524.483 473.765 524.483 0.378 0.06 0.378"></polygon>
        <polygon id="path-25" points="0.06 485 0.06 0.323 491.784 0.323 491.784 485 245.922 485"></polygon>
    </defs>
    <g id="Page-1" stroke="none" stroke-width="1" fill="none" fill-rule="evenodd">
        <g id="road" transform="translate(-1.000000, -110.000000)">
            <g id="Page-1">
                <g id="vacations_09">
                    <g id="Group-4" transform="translate(0.000000, 16.000000)">
                        <polygon id="Fill-1" fill="#CCCCCC" points="0.06 800 799.92 800 799.92 0.08 0.06 0.08"></polygon>
                        <polygon id="Fill-3" fill="#B8BCBD" points="0.06 800 799.92 800 799.92 0.08 0.06 0.08"></polygon>
                    </g>
                    <g id="white" transform="translate(215.000000, 16.000000)" fill="#FFFFFF">
                        <polyline id="Fill-43" points="511.474 96.544 546.795 106.939 584.92 28.669 584.92 0.08 558.462 0.08 511.474 96.544"></polyline>
                        <polygon id="Fill-44" points="399.032 225.644 515.338 220.284 539.164 194.905 397.422 194.352"></polygon>
                        <polyline id="Fill-42" points="448.556 82.164 450.167 113.456 584.92 123.828 584.92 95.282 448.556 82.164"></polyline>
                        <polyline id="Fill-41" points="338.631 517.617 345.957 486.73 148.963 486.671 144.956 517.661 338.631 517.617"></polyline>
                        <polyline id="Fill-40" points="31.561 800 59.455 703.69 31.702 691.533 0.287 800 31.561 800"></polyline>
                        <polyline id="Fill-5" points="468.016 0.08 319.731 372.087 345.516 382.947 498.13 0.08 468.016 0.08"></polyline>
                    </g>
                    <g id="white2" transform="translate(0.000000, 16.000000)" fill="#FFFFFF">
                        <path d="M585.856,353.919 C593.83,395.128 609.612,469.367 659.264,548.713 C690.5,598.631 735.213,650.729 799.92,698.239 L799.92,735.016 C722.166,681.762 669.735,621.91 633.94,564.705 C581.367,480.692 564.794,402.789 556.43,359.564 L585.856,353.919" id="Fill-6"></path>
                        <polyline id="Fill-8" points="799.92 138.53 0 783.546 0 800 24.208 800 799.92 174.505 799.92 138.53"></polyline>
                        <polyline id="Fill-9" points="562.525 800 562.524 0.08 534.57 0.08 534.57 800 562.525 800"></polyline>
                        <polyline id="Fill-10" points="799.92 345.193 0 345.193 0 373.231 799.92 373.23 799.92 345.193"></polyline>
                    </g>
                    <path d="M548.548,292.559 C594.061,292.559 630.955,329.565 630.955,375.212 C630.955,420.859 594.061,457.865 548.548,457.865 C503.034,457.865 466.141,420.859 466.141,375.212 C466.141,329.565 503.034,292.559 548.548,292.559" id="Fill-12" fill="#FFFFFF"></path>
                    <path d="M548.548,319.514 C579.218,319.514 604.081,344.451 604.081,375.212 C604.081,405.974 579.218,430.91 548.548,430.91 C517.879,430.91 493.015,405.974 493.015,375.212 C493.015,344.451 517.879,319.514 548.548,319.514" id="Fill-13" fill="#78A942"></path>
                    <g id="Group-22" transform="translate(0.000000, 16.000000)">
                        <g id="Fill-14-Clipped">
                            <mask id="mask-2" fill="white">
                                <use xlink:href="#path-1"></use>
                            </mask>
                            <g id="path-1"></g>
                            <polyline id="Fill-14" fill="#FFFFFF" mask="url(#mask-2)" points="376.681 515.783 392.391 492.581 69.611 350.026 53.9 373.23 376.681 515.783"></polyline>
                        </g>
                        <g id="Fill-16-Clipped">
                            <mask id="mask-4" fill="white">
                                <use xlink:href="#path-3"></use>
                            </mask>
                            <g id="path-1"></g>
                            <polyline id="Fill-16" fill="#FFFFFF" mask="url(#mask-4)" points="88.607 752.824 104.318 729.62 0 663.358 0 696.542 88.607 752.824"></polyline>
                        </g>
                        <g id="Fill-17-Clipped">
                            <mask id="mask-6" fill="white">
                                <use xlink:href="#path-5"></use>
                            </mask>
                            <g id="path-1"></g>
                            <polyline id="Fill-17" fill="#FFFFFF" mask="url(#mask-6)" points="548.424 228.989 549.228 200.951 0 91.173 0 119.371 548.424 228.989"></polyline>
                        </g>
                        <g id="Fill-18-Clipped">
                            <mask id="mask-8" fill="white">
                                <use xlink:href="#path-7"></use>
                            </mask>
                            <g id="path-1"></g>
                            <polyline id="Fill-18" fill="#FFFFFF" mask="url(#mask-8)" points="0 319.222 155.193 146.293 144.645 120.317 0 281.492 0 319.222"></polyline>
                        </g>
                        <g id="Fill-19-Clipped">
                            <mask id="mask-10" fill="white">
                                <use xlink:href="#path-9"></use>
                            </mask>
                            <g id="path-1"></g>
                            <polyline id="Fill-19" fill="#FFFFFF" mask="url(#mask-10)" points="49.87 254.631 69.849 229.799 0 215.302 0 244.28 49.87 254.631"></polyline>
                        </g>
                        <g id="Fill-20-Clipped">
                            <mask id="mask-12" fill="white">
                                <use xlink:href="#path-11"></use>
                            </mask>
                            <g id="path-1"></g>
                        </g>
                        <g id="Fill-21-Clipped">
                            <mask id="mask-14" fill="white">
                                <use xlink:href="#path-13"></use>
                            </mask>
                            <g id="path-1"></g>
                            <polyline id="Fill-21" fill="#FFFFFF" mask="url(#mask-14)" points="0 304.483 5.931 297.112 0 295.789 0 304.483"></polyline>
                        </g>
                    </g>
                    <polyline id="Fill-23" fill="#FFFFFF" points="230.025 165.79 253.36 178.946 399.522 16.08 364.383 16.08 230.025 165.79"></polyline>
                    <polyline id="Fill-24" fill="#FFFFFF" points="216.538 370.028 240.803 383.97 258.166 172.815 233.9 158.871 216.538 370.028"></polyline>
                    <polyline id="Fill-25" fill="#FFFFFF" points="254.405 266.065 252.013 234.822 53.962 234.823 24.393 266.067 254.405 266.065"></polyline>
                    <polyline id="Fill-26" fill="#FFFFFF" points="554.463 274.482 557.921 242.764 236.475 234.391 233.02 266.112 554.463 274.482"></polyline>
                    <polyline id="Fill-27" fill="#FFFFFF" points="305.034 380.968 335.778 375.39 334.719 257.922 303.906 266.873 305.034 380.968"></polyline>
                    <g id="Group-31" transform="translate(0.000000, 23.000000)">
                        <g id="Fill-28-Clipped">
                            <mask id="mask-16" fill="white">
                                <use xlink:href="#path-15"></use>
                            </mask>
                            <g id="path-3"></g>
                            <polyline id="Fill-28" fill="#FFFFFF" mask="url(#mask-16)" points="404.105 354.763 434.849 349.184 433.789 231.717 402.977 240.665 404.105 354.763"></polyline>
                        </g>
                        <g id="Fill-30-Clipped">
                            <mask id="mask-18" fill="white">
                                <use xlink:href="#path-17"></use>
                            </mask>
                            <g id="path-3"></g>
                        </g>
                    </g>
                    <polyline id="Fill-33" fill="#FFFFFF" points="554.903 661.982 553.709 633.959 271.478 593.564 272.672 621.589 554.903 661.982"></polyline>
                    <polyline id="Fill-34" fill="#FFFFFF" points="558.098 764.556 556.904 736.531 159.622 683.315 160.818 711.34 558.098 764.556"></polyline>
                    <polyline id="Fill-35" fill="#FFFFFF" points="234.313 711.951 269.634 722.346 379.979 622.623 344.659 612.228 234.313 711.951"></polyline>
                    <polyline id="Fill-36" fill="#FFFFFF" points="646.626 585.88 675.498 599.207 799.92 388.182 799.92 381.94 773.944 369.95 646.626 585.88"></polyline>
                    <polyline id="Fill-37" fill="#FFFFFF" points="684.531 816 667.088 578.031 636.274 581 653.736 816 684.531 816"></polyline>
                    <polyline id="Fill-38" fill="#FFFFFF" points="669.954 764.555 668.759 736.531 549.517 741.012 550.711 769.036 669.954 764.555"></polyline>
                    <polyline id="Fill-39" fill="#FFFFFF" points="660.366 605.416 659.172 566.43 543.125 622.483 544.32 661.471 660.366 605.416"></polyline>
                    <g id="Group-48" transform="translate(0.000000, 264.000000)">
                        <g id="Fill-45-Clipped">
                            <mask id="mask-20" fill="white">
                                <use xlink:href="#path-19"></use>
                            </mask>
                            <g id="path-5"></g>
                            <polyline id="Fill-45" fill="#78A942" mask="url(#mask-20)" points="272.427 351.849 325.874 365.202 252.265 431.726 184.607 422.662 272.427 351.849"></polyline>
                        </g>
                        <g id="Fill-47-Clipped">
                            <mask id="mask-22" fill="white">
                                <use xlink:href="#path-21"></use>
                            </mask>
                            <g id="path-5"></g>
                            <polyline id="Fill-47" fill="#78A942" mask="url(#mask-22)" points="62.062 2.067 0 71.222 0 97.193 217.263 97.193 225.219 0.45 62.062 2.067"></polyline>
                        </g>
                    </g>
                    <polyline id="Fill-49" fill="#929AA4" points="334.815 268.763 335.648 361.193 403.94 361.193 403.044 270.539 334.815 268.763"></polyline>
                    <g id="Group-53" transform="translate(0.000000, 140.000000)" fill="#929AA4">
                        <polyline id="Fill-52" points="123.364 20.029 87.567 59.916 0 41.739 0 38.28 27.574 0.884 123.364 20.029"></polyline>
                    </g>
                    <polyline id="Fill-54" fill="#FFFFFF" points="799.92 496.056 733.519 457.181 719.964 481.715 799.92 528.525 799.92 496.056"></polyline>
                    <polyline id="Fill-55" fill="#FFFFFF" points="740.159 695.667 763.532 711.067 799.92 641.97 799.92 582.184 740.159 695.667"></polyline>
                    <polyline id="Fill-56" fill="#FFFFFF" points="799.92 612.582 793.354 622.673 799.92 627.174 799.92 612.582"></polyline>
                    <path d="M799.92,641.969 L772.922,693.238 C772.922,693.238 783.835,702.316 793.278,709.308 C795.423,710.895 797.692,712.556 799.92,714.175 L799.92,641.969" id="Fill-57" fill="#78A942"></path>
                    <polygon id="Fill-59" fill="#929AA4" points="253.067 234.822 257.02 186.745 534.196 242.145"></polygon>
                    <g id="Group-67" transform="translate(0.000000, 206.000000)">
                        <g id="Fill-66-Clipped">
                            <mask id="mask-24" fill="white">
                                <use xlink:href="#path-23"></use>
                            </mask>
                            <g id="path-7"></g>
                            <polyline id="Fill-66" fill="#FFFFFF" mask="url(#mask-24)" points="0 440.722 0 473.765 289.419 277.822 278.871 251.923 0 440.722"></polyline>
                        </g>
                    </g>
                    <g id="Group-88" transform="translate(0.000000, 331.000000)">
                        <g id="Fill-87-Clipped">
                            <mask id="mask-26" fill="white">
                                <use xlink:href="#path-25"></use>
                            </mask>
                            <g id="path-9"></g>
                            <path d="M288.241,415.849 C298.405,438.635 307.461,461.725 315.419,485 L155.46,485 C157.487,478.213 159.271,471.452 160.804,464.811 C167.907,434.027 172.996,389.592 160.075,355.734 C119.289,289.318 61.133,228.3732 0,178.7742 L0,72.02 C91.073,133.639 167.631,211.761 226.693,302.609 L230.586,301.701 L242.597,328.223 C257.999,357.747 274.944,386.038 288.241,415.849 Z" id="Fill-87" fill="#FFFFFF" mask="url(#mask-26)"></path>
                        </g>
                    </g>
                    <path d="M216.733,667.963 C233.754,696.164 248.744,725.017 261.771,754.224 C270.894,774.677 279.049,795.304 286.267,816 L251.604,816 C245.707,799.396 239.171,782.846 231.984,766.407 C231.025,782.972 228.65,799.657 225.135,816 L187.114,816 C187.911,812.935 188.668,809.854 189.383,806.758 C199.774,761.724 201.066,714.433 185.999,677.912 C140.934,603.838 78.509,533.892046 2.025,475.745046 L2.025,437.984184 C93.531,503.103184 164.17,581.209 216.037,666.815 C216.385,667.17 216.558,667.567 216.733,667.963 Z" id="Fill-89" fill="#40BBCF"></path>
                    <rect id="Rectangle" fill="#FFFFFF" x="0" y="0" width="800" height="123"></rect>
                    <rect id="Rectangle" fill="#FFFFFF" x="83" y="33" width="717" height="107"></rect>
                    <rect id="Rectangle" fill="#FFFFFF" x="187" y="45" width="613" height="119"></rect>
                    <path d="M109.022866,128.113186 L798.815358,123.416159 C798.815358,123.416159 798.938528,139.848558 798.815358,155.456364 C798.692189,171.064171 801.239016,169.221928 798.815358,175.128811 C791.276833,193.501529 739.318598,222.144436 739.318598,222.144436 L509.867188,222.144436 L109.022866,128.113186 Z" id="Rectangle" fill="#FFFFFF"></path>
                </g>
            </g>
        </g>
    </g>
</svg>